PathFileType	4	(X/Y/Z)	W14_1_OpenSim.trc																																																																																																																						
DataRate	CameraRate	NumFrames	NumMarkers	Units	OrigDataRate	OrigDataStartFrame	OrigNumFrames																																																																																																																		
100	100	6	40	mm	100	376	3000																																																																																																																		
Frame#	Time	R.ASIS			R.PSIS			S2			L.PSIS			L.ASIS			R.TH1			R.TH2			R.TH3			R.MKnee			R.Knee			R.SH1			R.SH2			R.SH3			R.SH4			R.Ankle			R.MAnkle			R.Heel			R.MT5			R.MT1			L.TH1			L.TH2			L.TH3			L.TH4			L.MKnee			L.Knee			L.SH1			L.SH2			L.SH3			L.Ankle			L.MAnkle			L.Heel			L.MT5			L.MT1			R.Acr			L.Acr			C7			T10			Clav			Sternum			R.Back		
		X1	Y1	Z1	X2	Y2	Z2	X3	Y3	Z3	X4	Y4	Z4	X5	Y5	Z5	X6	Y6	Z6	X7	Y7	Z7	X8	Y8	Z8	X9	Y9	Z9	X10	Y10	Z10	X11	Y11	Z11	X12	Y12	Z12	X13	Y13	Z13	X14	Y14	Z14	X15	Y15	Z15	X16	Y16	Z16	X17	Y17	Z17	X18	Y18	Z18	X19	Y19	Z19	X20	Y20	Z20	X21	Y21	Z21	X22	Y22	Z22	X23	Y23	Z23	X24	Y24	Z24	X25	Y25	Z25	X26	Y26	Z26	X27	Y27	Z27	X28	Y28	Z28	X29	Y29	Z29	X30	Y30	Z30	X31	Y31	Z31	X32	Y32	Z32	X33	Y33	Z33	X34	Y34	Z34	X35	Y35	Z35	X36	Y36	Z36	X37	Y37	Z37	X38	Y38	Z38	X39	Y39	Z39	X40	Y40	Z40
376	3.75	978.7733	1063.5321	-434.7663	785.6894	1069.1682	-513.5293	776.5244	1066.1923	-558.4609	781.0602	1073.8563	-608.5041	953.0374	1059.0459	-727.312	1054.65	777.1138	-396.1628	983.5864	737.6751	-384.6551	1036.3418	641.4834	-390.6617	1111.7671	536.0034	-510.0786	1105.1012	546.6782	-393.2458	1116.1538	383.7131	-378.26	1118.2605	271.7023	-386.9018	1034.1108	382.828	-375.1695	1038.4945	270.2783	-373.8589	1060.0408	106.1339	-369.4452	1102.5316	121.3775	-460.1324	1003.7237	69.0246	-430.223	1170.6918	60.5862	-334.1431	1223.9499	62.6345	-418.8451	920.3903	756.8033	-733.8999	898.2976	651.1812	-719.9243	838.163	768.7062	-745.2244	819.4927	662.594	-723.1034	846.988	506.3884	-596.249	837.2211	514.2818	-704.8558	816.0102	381.9999	-718.6867	735.6353	399.9705	-720.9048	714.4601	292.472	-710.6251	732.5737	83.8763	-699.2697	760.0901	93.1553	-600.9357	665.1855	45.6755	-644.9122	838.3818	32.6299	-713.3132	875.6943	45.8443	-612.3072	925.8188	1454.1855	-412.8059	909.355	1459.0714	-737.2139	864.0374	1501.4188	-577.5817	821.9661	1175.6921	-570.905	998.1607	1401.9327	-580.7863	1020.5732	1257.3361	-573.4351	781.3251	1407.3815	-495.6423
377	3.76	978.7431	1060.647	-434.3693	785.8662	1067.1838	-512.408	776.353	1064.3997	-557.3281	780.7665	1072.0962	-607.3601	952.0989	1056.5062	-726.798	1052.7205	773.1795	-396.7969	981.5323	734.1979	-384.6935	1033.8093	637.7252	-390.7878	1108.4478	531.8803	-510.0723	1103.9186	543.4052	-393.3201	1124.6628	382.1286	-377.6851	1133.7974	270.5443	-385.8168	1042.9097	375.9959	-373.1612	1054.6047	264.084	-371.4895	1087.5002	101.0814	-366.9164	1127.927	118.2893	-458.0621	1033.3101	59.5513	-426.7912	1201.4144	63.652	-332.2882	1253.4697	68.4956	-417.5484	915.5611	754.8146	-733.1079	891.817	649.5448	-719.0634	833.5788	767.9105	-744.938	813.1791	662.1539	-722.7024	837.8057	505.4093	-595.9822	828.3574	513.5426	-704.4348	805.4594	381.52	-718.3635	725.3886	400.3648	-720.5005	702.8329	293.1685	-710.3706	718.701	84.1004	-699.0128	746.3528	93.0452	-600.6564	651.3011	45.8814	-644.6932	824.337	32.7213	-713.3503	861.8135	46.012	-612.4189	925.155	1451.2793	-412.11	909.4392	1456.4667	-736.5248	863.903	1498.9884	-576.988	821.5522	1173.2362	-570.0054	997.9026	1399.1174	-580.0381	1020.1316	1254.4698	-572.8455	780.7517	1404.7461	-495.3912
378	3.77	978.8104	1057.5269	-433.851	786.1628	1064.9506	-511.2373	776.3026	1062.3678	-556.1425	780.5695	1070.1177	-606.1613	951.3234	1053.8301	-726.1622	1050.5012	768.7122	-397.3979	979.2165	730.2809	-384.51	1030.8845	633.4608	-390.6319	1104.3453	527.1478	-509.9044	1102.3012	539.6657	-393.1852	1132.3724	380.692	-377.1101	1148.3807	269.9479	-384.9251	1051.2043	369.4219	-371.1498	1070.0874	258.5383	-369.3454	1114.1584	97.2907	-364.9151	1152.2435	116.5162	-456.4676	1062.2339	51.6745	-423.9156	1230.7639	68.0787	-331.1631	1281.3149	75.8319	-416.9957	911.2271	752.7133	-732.2659	885.9163	647.8006	-718.1469	829.5031	766.923	-744.6846	807.4819	661.5296	-722.3044	829.1921	504.4149	-595.6135	820.1289	512.6897	-704.0071	795.433	380.9234	-717.9913	715.733	400.7228	-720.1165	691.6582	293.8804	-710.1604	704.8842	84.3469	-698.758	732.6897	93.0086	-600.3645	637.4603	46.1765	-644.4684	810.3226	32.8033	-713.3699	847.9275	46.1383	-612.5023	924.6211	1448.3416	-411.3089	909.5004	1453.6476	-735.7194	863.8094	1496.395	-576.2813	821.2083	1170.6193	-569.0008	997.6993	1396.1987	-579.198	1019.7951	1251.5226	-572.1632	780.306	1401.9176	-494.9483
379	3.78	978.9864	1054.2395	-433.2292	786.5209	1062.4764	-509.9885	776.3459	1060.0815	-554.876	780.4346	1067.9055	-604.8774	950.6642	1051.0389	-725.4151	1048.1757	763.9017	-397.9228	976.8561	726.0923	-383.9633	1027.8126	628.8753	-390.0821	1099.6288	521.9683	-509.5511	1100.3672	535.5765	-392.8241	1139.1429	379.356	-376.5263	1161.7521	269.7996	-384.2532	1058.806	363.1609	-369.2783	1084.6067	253.6232	-367.5896	1139.4833	94.6112	-363.6186	1175.0337	115.9901	-455.471	1089.9412	45.3434	-421.8678	1258.1897	73.5479	-330.844	1307.0193	84.3794	-417.2025	907.4159	750.4983	-731.3918	880.6202	645.9435	-717.1851	825.9588	765.7437	-744.471	802.4275	660.7137	-721.9102	821.2109	503.3917	-595.1454	812.5613	511.7107	-703.5838	785.9672	380.2054	-717.5746	706.6754	401.0559	-719.7574	680.9611	294.6168	-709.9897	691.1422	84.6281	-698.5137	719.1193	93.0711	-600.064	623.6686	46.595	-644.2473	796.3483	32.8721	-713.3779	834.0591	46.2336	-612.5516	924.237	1445.4003	-410.4004	909.5429	1450.6692	-734.7959	863.76	1493.6707	-575.455	820.9222	1167.8772	-567.8923	997.5572	1393.212	-578.2686	1019.5546	1248.5188	-571.3934	780.0001	1398.9401	-494.3035
380	3.79	979.274	1050.8578	-432.5097	786.8889	1059.7809	-508.6335	776.4569	1057.5383	-553.5037	780.3397	1065.4522	-603.4826	950.0824	1048.1547	-724.566	1045.9677	758.9684	-398.3281	974.6908	721.8283	-382.977	1024.8696	624.1824	-389.1044	1094.5627	516.5558	-509.0341	1098.2472	531.2698	-392.2664	1144.8541	378.0365	-375.9448	1173.6559	269.9238	-383.8202	1065.5201	357.2421	-367.726	1097.7941	249.2723	-366.3857	1162.8791	92.817	-363.1556	1195.843	116.5232	-455.1568	1115.8103	40.4177	-420.8697	1283.1243	79.6084	-331.3408	1330.1172	93.707	-418.122	904.1339	748.1707	-730.5029	875.9336	643.972	-716.1889	822.9441	764.3793	-744.2863	798.0134	659.7043	-721.5109	813.9157	502.3151	-594.5875	805.6655	510.6002	-703.1674	777.0847	379.3666	-717.115	698.2145	401.3787	-719.419	670.7544	295.3928	-709.8494	677.491	84.9633	-698.2939	705.6531	93.2576	-599.7665	609.9274	47.1798	-644.0452	782.42	32.926	-713.3842	820.2288	46.3061	-612.5654	924.0264	1442.4741	-409.3854	909.5772	1447.5874	-733.752	863.7568	1490.8469	-574.505	820.6887	1165.0425	-566.684	997.4836	1390.1852	-577.254	1019.4013	1245.4727	-570.5373	779.8449	1395.861	-493.4486
381	3.8	979.6649	1047.454	-431.6803	787.2366	1056.8944	-507.1497	776.6169	1054.7538	-552.006	780.2788	1062.7607	-601.9595	949.5547	1045.1984	-723.6216	1044.1117	754.1384	-398.5749	972.9494	717.6835	-381.5754	1022.3245	619.5972	-387.7706	1089.4962	511.1657	-508.42	1096.0867	526.89	-391.5876	1149.4323	376.6252	-375.4063	1183.8669	270.0985	-383.6467	1071.177	351.6797	-366.6836	1109.2889	245.3814	-365.8825	1183.7277	91.6258	-363.5875	1214.2333	117.8129	-455.5645	1139.1733	36.685	-421.0608	1305.017	85.7009	-332.5935	1350.179	103.2189	-419.6447	901.3655	745.7379	-729.6091	871.8433	641.8933	-715.1691	820.4387	762.8445	-744.0906	794.2087	658.5109	-721.0843	807.3483	501.1554	-593.952	799.4404	509.3631	-702.7473	768.7917	378.4162	-716.612	690.348	401.7097	-719.0884	661.037	296.2307	-709.7297	663.9461	85.382	-698.118	692.3003	93.5945	-599.4944	596.2381	47.9856	-643.884	768.5443	32.9623	-713.3983	806.4493	46.3636	-612.5471	924.0117	1439.5757	-408.2651	909.6176	1444.458	-732.5865	863.803	1487.9563	-573.4307	820.5106	1162.1439	-565.3828	997.4872	1387.1406	-576.1548	1019.3299	1242.394	-569.5926	779.8481	1392.7285	-492.3788
